<svg xmlns="http://www.w3.org/2000/svg" viewBox="0 0 800 140"><defs><style>.a{fill:#16cc6e;}.b{fill:#28f789;}.c{fill:#2e8551;}.d{fill:#232933;}</style></defs><path class="a" d="M125.316,85.277l33.99-40.084,68.571,40.084Z"/><path class="b" d="M125.316,85.277H227.879l-82.433,25.074Z"/><path class="c" d="M125.316,4.223l33.99,40.965L139.648,68.37,125.316,50.661Z"/><path class="b" d="M103.352,54.722H.789L83.221,29.647Z"/><path class="a" d="M103.352,54.729,69.361,94.812.789,54.729Z"/><path class="c" d="M103.351,135.777,69.359,94.812,89.02,71.63l14.331,17.709Z"/><path class="d" d="M308.328,103.32h12.363L288.9,43.605,257.1,103.32h12.364l6.832-12.83h25.195ZM282.119,79.565,288.9,66.823l6.784,12.742Z"/><path class="d" d="M346.129,103.32H334.564V49.1l36.348,29.655V48.872h11.565V103.1L346.129,73.441Z"/><path class="d" d="M455.407,48.845,433.992,77.662l.011,25.4H422.438v-25.4L401.261,48.85h11.565l15.4,19.287L443.853,48.85Z"/><path class="d" d="M732.868,48.878H706.639a27.221,27.221,0,0,0-.043,54.442h27.3V70.394H705.611V81.8H722.48V91.91H706.645a15.812,15.812,0,1,1,0-31.623H733.9V48.878Z"/><path class="d" d="M560.176,59.666h30.169V48.744H560.176a15.747,15.747,0,0,0-15.721,15.721v23.11A15.749,15.749,0,0,0,560.176,103.3h30.169V92.382H560.176a4.819,4.819,0,0,1-4.813-4.814v-6.1h29.488V70.555H555.366v-6.1a4.82,4.82,0,0,1,4.814-4.816"/><path class="d" d="M769.043,59.666h30.168V48.744H769.043a15.745,15.745,0,0,0-15.721,15.721v23.11A15.749,15.749,0,0,0,769.043,103.3h30.168V92.382H769.043a4.819,4.819,0,0,1-4.815-4.814v-6.1h29.488V70.555H764.235v-6.1a4.82,4.82,0,0,1,4.816-4.816"/><path class="d" d="M525,48.872V103.32H513.43V81.847H482.1v21.469H470.537V48.872H482.1V70.318H513.44V48.872Z"/><path class="d" d="M612.208,49.928h24.254a34.067,34.067,0,0,1,15.369,3.317A24.846,24.846,0,0,1,662.2,62.588a28.472,28.472,0,0,1,0,28.068A24.835,24.835,0,0,1,651.831,100a34.081,34.081,0,0,1-15.369,3.318H612.208Zm23.643,43.245a17.951,17.951,0,0,0,12.778-4.459,17.711,17.711,0,0,0,0-24.18,17.951,17.951,0,0,0-12.778-4.464H624.563v33.1Z"/></svg>